<?xml version="1.0" encoding="UTF-8"?>
<!-- Generator: Adobe Illustrator 24.1.3, SVG Export Plug-In . SVG Version: 6.00 Build 0)  -->
<svg version="1.1" id="Ebene_1" xmlns="http://www.w3.org/2000/svg" xmlns:xlink="http://www.w3.org/1999/xlink" x="0px" y="0px" viewBox="0 0 421.3 97.8" style="enable-background:new 0 0 421.3 97.8;" xml:space="preserve">
<style type="text/css">
	.st0{fill:#6F7A89;}
	.st1{fill:#C31919;}
</style>
<path class="st0" d="M398.1,76.5c12.1,0,22.2-5.2,22.2-16.4c0-12.4-11.1-14.7-20.2-16.7c-6.3-1.4-11.6-2.7-11.6-7c0-3,2.2-5.4,9-5.4  c4.8,0,11.1,2.6,15,5.8l5.9-8c-5.5-4.6-11.7-7.5-21.8-7.5c-11.7,0-19.7,6.3-19.7,15.6c0,12.3,10.9,14.7,20,16.8  c6.4,1.5,11.8,2.8,11.8,7.1c0,4.4-4,6.1-10.6,6.1c-6.8,0-12.7-2.9-16.7-6.3l-6.7,7.5C379.5,73,388.3,76.5,398.1,76.5 M349,76.5  c12.8,0,19.1-7.1,22.9-15.6l-10.2-3.7c-2.9,7.5-6.8,9.2-12.4,9.2c-8.1,0-12.7-6.2-12.7-17.5c0-12.7,5.9-17.3,12.9-17.3  c5.9,0,9.7,2.9,11.8,8.9l10.4-3.7c-3.2-8.2-8.8-15.5-22-15.5c-11.8,0-25.5,7.3-25.5,27.6C324.2,68.3,336.7,76.5,349,76.5 M304,75.4  h12.4V22.3H304V75.4z M303.9,13.1h12.6V2.4h-12.6V13.1z M246.6,75.4H259V38.7c4.5-4.1,9-6.9,14.4-6.9s7.9,2.7,7.9,8.6v35h12.4V37.3  c0-10.5-6-16-15.3-16c-9.6,0-16,4.6-19.4,8.2V1.4h-12.4V75.4z M230,76.1c3.1,0,7.7-0.4,9-0.7v-9.7c-1.2,0.4-3.5,0.7-5.3,0.7  c-6.1,0-7.8-2.3-7.8-8V32.1h13.7v-9.8h-13.7V3.8h-12.3v18.5h-9.2v9.8h9.2v29.4C213.6,71.1,216.5,76.1,230,76.1 M154.1,75.4h49.8V64  h-37.3V42.5h25.9V31.4h-25.9V13h35.3V1.4h-47.8V75.4z"/>
<path class="st1" d="M119.1,66.2c-9.4,0-13.5-7.2-13.5-17.3c0-10.7,4.6-17.1,13.5-17.1c9.3,0,13.5,7.2,13.5,17.1  C132.6,59.8,128,66.2,119.1,66.2 M119.1,76.5c12.9,0,25.9-8.2,25.9-27.6c0-19.6-13-27.6-25.9-27.6c-13,0-25.9,8-25.9,27.6  C93.2,68.3,106.2,76.5,119.1,76.5 M58.9,75.4h12.3V41.8c3.5-5.7,8.5-9.4,16.4-9.4c0.7,0,2.7,0.1,3.3,0.2l0.4-11.3h-0.8  c-10.1,0-15.8,4.4-19.1,9.7h-0.2v-8.7H58.9V75.4z M25.6,66.4c-4.4,0-9.2-2.3-12.5-6.6V38.5C16,35,20.9,31.8,26,31.8  c7.9,0,12.7,5.9,12.7,17.1C38.7,60.7,34.9,66.4,25.6,66.4 M0.8,95.4h12.3V69.5c3.9,4.4,9.5,6.7,15.2,6.7c13.6,0,22.7-9,22.7-27.4  s-8.9-27.5-21-27.5c-7.9,0-13.4,3.8-16.9,8v-7H0.8V95.4z"/>
</svg>